<svg width="860" height="258" viewBox="0 0 860 258" fill="none" xmlns="http://www.w3.org/2000/svg">
<path d="M859.531 144.476L814.266 159.693V122.265L859.602 110.35L859.531 144.476Z" fill="#848583"/>
<path d="M859.129 181.148L816 198.168L814.432 160.77L859.662 145.359L859.129 181.148Z" fill="#848583"/>
<path d="M859.129 216.098L814.266 236.852L814.873 199.756L859.566 183.052L859.129 216.098Z" fill="#848583"/>
<path d="M676.614 199.422H620.173C617.016 199.422 614.458 203.146 614.458 207.74V228.535C614.458 233.128 617.017 236.852 620.173 236.852H676.614C679.772 236.852 682.331 233.128 682.331 228.535V207.74C682.331 203.146 679.772 199.422 676.614 199.422Z" fill="#D4D3CE"/>
<path d="M745.44 199.422H688.999C685.843 199.422 683.283 203.146 683.283 207.74V228.535C683.283 233.128 685.843 236.852 688.999 236.852H745.44C748.597 236.852 751.157 233.128 751.157 228.535V207.74C751.157 203.146 748.597 199.422 745.44 199.422Z" fill="#D4D3CE"/>
<path d="M814.265 199.422H757.825C754.666 199.422 752.107 203.146 752.107 207.74V228.535C752.107 233.128 754.666 236.852 757.825 236.852H814.265C817.423 236.852 819.981 233.128 819.981 228.535V207.74C819.981 203.146 817.423 199.422 814.265 199.422Z" fill="#D4D3CE"/>
<path d="M814.265 160.851H757.825C754.666 160.851 752.107 164.573 752.107 169.168V189.962C752.107 194.555 754.666 198.279 757.825 198.279H814.265C817.423 198.279 819.981 194.555 819.981 189.962V169.168C819.981 164.573 817.423 160.851 814.265 160.851Z" fill="#D4D3CE"/>
<path d="M688.762 197.826H745.202C748.359 197.826 750.918 194.102 750.918 189.508V168.717C750.918 164.121 748.359 160.398 745.202 160.398H688.762C685.603 160.398 683.045 164.121 683.045 168.717V189.508C683.045 194.102 685.603 197.826 688.762 197.826Z" fill="#D4D3CE"/>
<path d="M619.698 197.589C619.698 197.589 646.458 196.731 652.973 197.589C663.667 198.996 676.139 197.589 676.139 197.589C679.294 197.589 681.854 193.864 681.854 189.27V168.476C681.854 163.882 679.294 160.159 676.139 160.159C676.139 160.159 655.057 158.243 648.395 160.159C639.238 162.791 619.699 160.159 619.699 160.159C616.539 160.159 613.982 163.882 613.982 168.476V189.27C613.981 193.864 616.539 197.589 619.698 197.589Z" fill="#D4D3CE"/>
<path d="M814.265 121.588H757.825C754.666 121.588 752.107 125.31 752.107 129.906V150.699C752.107 155.293 754.666 159.017 757.825 159.017H814.265C817.423 159.017 819.981 155.293 819.981 150.699V129.906C819.981 125.31 817.423 121.588 814.265 121.588Z" fill="#D4D3CE"/>
<path d="M688.523 159.017H744.965C748.121 159.017 750.68 155.293 750.68 150.699V129.907C750.68 125.311 748.121 121.589 744.965 121.589H688.523C685.366 121.589 682.807 125.311 682.807 129.907V150.699C682.807 155.293 685.366 159.017 688.523 159.017Z" fill="#D4D3CE"/>
<path d="M619.698 159.018H676.139C679.294 159.018 681.854 155.294 681.854 150.7V129.907C681.854 125.311 679.294 121.589 676.139 121.589H619.698C616.539 121.589 613.981 125.311 613.981 129.907V150.7C613.981 155.294 616.539 159.018 619.698 159.018Z" fill="#D4D3CE"/>
<path d="M859.602 110.35H669.299L618.188 121.883C618.188 121.883 640.599 123.304 647.917 122.014C666.233 118.787 699.506 120.662 716.595 122.317C732.535 123.86 769.75 119.651 787.821 122.63C795.064 123.825 817.192 122.76 817.192 122.76L859.602 110.35Z" fill="#747573"/>
<path d="M261.671 183.29H22.2512V201.737H261.671V183.29Z" fill="#3D91F8" stroke="#312F55" stroke-miterlimit="10"/>
<path d="M22.2502 201.675C24.4797 201.675 26.287 197.546 26.287 192.452C26.287 187.358 24.4797 183.228 22.2502 183.228C20.0207 183.228 18.2134 187.358 18.2134 192.452C18.2134 197.546 20.0207 201.675 22.2502 201.675Z" fill="#1B64BE" stroke="#312F55" stroke-miterlimit="10"/>
<path d="M18.1008 194.43L26.0433 193.693C26.0433 193.693 23.2278 209.824 18.1008 194.43Z" fill="#312F55"/>
<path d="M255.46 164.509H16.0398V182.957H255.46V164.509Z" fill="#3D91F8" stroke="#312F55" stroke-miterlimit="10"/>
<path d="M16.039 182.895C18.2685 182.895 20.0758 178.765 20.0758 173.671C20.0758 168.577 18.2685 164.448 16.039 164.448C13.8095 164.448 12.0022 168.577 12.0022 173.671C12.0022 178.765 13.8095 182.895 16.039 182.895Z" fill="#1B64BE" stroke="#312F55" stroke-miterlimit="10"/>
<path d="M11.8901 175.649L19.8326 174.912C19.8326 174.912 17.0171 191.043 11.8901 175.649Z" fill="#312F55"/>
<path d="M265.515 145.469H39.2317V163.918H265.515V145.469Z" fill="#3D91F8" stroke="#312F55" stroke-miterlimit="10"/>
<path d="M39.2314 163.855C41.4609 163.855 43.2682 159.725 43.2682 154.631C43.2682 149.537 41.4609 145.407 39.2314 145.407C37.0019 145.407 35.1946 149.537 35.1946 154.631C35.1946 159.725 37.0019 163.855 39.2314 163.855Z" fill="#1B64BE" stroke="#312F55" stroke-miterlimit="10"/>
<path d="M35.082 156.609L43.0244 155.873C43.0244 155.873 40.2087 172.003 35.082 156.609Z" fill="#312F55"/>
<path d="M244.893 201.599H5.47314V220.047H244.893V201.599Z" fill="#3D91F8" stroke="#312F55" stroke-miterlimit="10"/>
<path d="M5.47221 219.985C7.70187 219.985 9.50937 215.856 9.50937 210.762C9.50937 205.668 7.70187 201.538 5.47221 201.538C3.24255 201.538 1.43506 205.668 1.43506 210.762C1.43506 215.856 3.24255 219.985 5.47221 219.985Z" fill="#1B64BE" stroke="#312F55" stroke-miterlimit="10"/>
<path d="M1.32275 212.739L9.26517 212.002C9.26517 212.002 6.45001 228.133 1.32275 212.739Z" fill="#312F55"/>
<path d="M299.42 193.078H42.7952V211.526H299.42V193.078Z" fill="#73C3FF" stroke="#312F55" stroke-miterlimit="10"/>
<path d="M42.7953 211.442C45.1171 211.442 46.9992 207.312 46.9992 202.218C46.9992 197.123 45.1171 192.993 42.7953 192.993C40.4735 192.993 38.5913 197.123 38.5913 202.218C38.5913 207.312 40.4735 211.442 42.7953 211.442Z" fill="#0C77C8" stroke="#312F55" stroke-miterlimit="10"/>
<path d="M38.4734 204.195L46.7437 203.459C46.7437 203.46 43.8095 219.59 38.4734 204.195Z" fill="#312F55"/>
<path d="M282.745 174.826H31.729V193.274H282.745C285.851 193.274 288.369 189.145 288.369 184.05C288.369 178.956 285.851 174.826 282.745 174.826Z" fill="#73C3FF" stroke="#312F55" stroke-miterlimit="10"/>
<path d="M31.4075 193C33.7449 193 35.6397 188.87 35.6397 183.776C35.6397 178.682 33.7449 174.553 31.4075 174.553C29.0701 174.553 27.1753 178.682 27.1753 183.776C27.1753 188.87 29.0701 193 31.4075 193Z" fill="#0C77C8" stroke="#312F55" stroke-miterlimit="10"/>
<path d="M27.0564 185.754L35.3835 185.018C35.3835 185.018 32.4323 201.148 27.0564 185.754Z" fill="#312F55"/>
<path d="M300.952 156.576H51.498V175.023H300.952V156.576Z" fill="#73C3FF" stroke="#312F55" stroke-miterlimit="10"/>
<path d="M51.4976 175.28C53.8205 175.28 55.7036 171.151 55.7036 166.056C55.7036 160.962 53.8205 156.832 51.4976 156.832C49.1748 156.832 47.2917 160.962 47.2917 166.056C47.2917 171.151 49.1748 175.28 51.4976 175.28Z" fill="#0C77C8" stroke="#312F55" stroke-miterlimit="10"/>
<path d="M47.1738 168.034L55.4493 167.298C55.4493 167.298 52.5161 183.429 47.1738 168.034Z" fill="#312F55"/>
<path d="M324.568 210.823C323.886 210.823 323.233 211.022 322.629 211.386H23.7736C23.583 211.347 23.3899 211.324 23.1932 211.324C20.3861 211.324 18.1115 215.454 18.1115 220.548C18.1115 221.22 18.1523 221.876 18.2273 222.507L17.9688 222.526C18.1035 222.847 18.2363 223.149 18.3682 223.444C19.0371 227.119 20.9433 229.771 23.1929 229.771V229.833H324.567V229.27C324.567 229.27 324.567 229.27 324.567 229.27C327.673 229.27 330.191 225.141 330.191 220.046C330.191 214.953 327.673 210.823 324.568 210.823Z" fill="#73C3FF" stroke="#312F55" stroke-miterlimit="10"/>
<path d="M517.139 44.8098C517.139 44.8098 489.521 68.2399 498.29 81.4104C498.29 81.4104 510.18 91.8476 516.64 93.8515L517.111 85.4464L508.204 73.3379C508.204 73.3379 520.59 66.8217 521.371 62.6567" fill="#FFB27D"/>
<path d="M511.714 90.8794C511.714 90.8794 511.709 93.8495 509.913 96.2849C508.118 98.7202 507.684 99.4359 509.254 101.483C510.824 103.53 512.393 106.237 514.046 105.994C515.7 105.751 518.105 93.0701 518.105 93.0701L511.714 90.8794Z" fill="#FFB27D"/>
<path d="M556.749 86.3506C556.868 87.6337 557.364 111.593 557.398 112.494C557.437 113.485 554.686 115.461 544.974 116.881C541.489 117.392 537.382 117.741 532.661 117.794C520.551 117.926 515.921 112.91 515.921 112.91C515.096 112.925 516.843 107.092 517.124 69.2168C516.917 69.2168 516.794 67.6991 516.594 67.6233C512.303 65.9804 503.91 55.7912 503.91 55.7912C503.91 55.7912 507.275 47.9862 513.764 42.5775C515.302 41.296 520.663 40.2041 525.829 40.2041C526.886 39.9813 528.015 39.7876 529.194 39.6283C534.677 38.8903 541.304 38.8677 547.444 39.7424C548.511 39.8896 549.564 40.0677 550.594 40.2761C555.139 41.1848 560.133 40.4958 563.038 42.5775C567.313 45.6397 570.921 62.6428 570.921 62.6428C570.921 62.6428 565.566 67.9677 556.499 70.1632C556.023 79.1846 556.215 80.4114 556.749 86.3506Z" fill="#CBCAC5"/>
<path d="M555.061 67.6233L549.676 74.7975L556.678 87.0443V68.5875L555.061 67.6233Z" fill="#848583"/>
<path d="M513.084 110.717L516.781 65.3391C516.993 62.7266 519.268 60.7497 521.925 60.8673L547.107 61.8395C549.182 61.9191 550.855 63.5426 550.961 65.5854C551.271 71.545 552.426 83.1226 556.751 86.3501C556.751 86.3501 560.302 100.833 560.529 105.399C561.141 117.693 530.888 144.306 530.888 144.306C530.888 144.306 527.691 125.906 523.295 120.793C520.837 117.933 513.084 110.717 513.084 110.717Z" fill="#FCCB0D"/>
<path d="M550.595 40.2763L547.555 63.463L544.398 62.9711L547.445 39.7429C548.512 39.8898 549.565 40.0679 550.595 40.2763Z" fill="#FCCB0D"/>
<path d="M529.195 39.6287L525.296 60.4306L524.97 62.1758L524.62 62.0962L521.843 61.4831L525.83 40.2045C526.887 39.9814 528.016 39.788 529.195 39.6287Z" fill="#FCCB0D"/>
<path d="M569.595 88.1917C569.595 88.1917 567.706 93.8521 543.4 101.682C543.4 101.682 543.124 95.2853 544.601 94.4307C549.169 91.7879 560.054 83.9018 560.428 82.5135C560.677 81.5913 558.198 74.6268 555.061 67.6236C560.823 66.9927 564.535 66.4822 568.782 64.238C570.363 75.2516 572.541 82.9602 569.595 88.1917Z" fill="#FFB27D"/>
<path d="M540.632 94.7384C540.632 94.7384 538.605 93.2105 537.047 92.9839C535.49 92.7571 532.867 91.7792 533.292 92.6873C533.717 93.5954 536.589 95.0277 536.589 95.0277L540.632 94.7384Z" fill="#FFB27D"/>
<path d="M536.744 104.831L528.823 105.783C527.948 105.889 527.123 105.358 526.868 104.526L521.45 86.8195C521.125 85.7588 521.849 84.6652 522.966 84.5307L530.886 83.578C531.762 83.4725 532.587 84.0037 532.841 84.8354L538.26 102.542C538.585 103.603 537.861 104.697 536.744 104.831Z" fill="#545453"/>
<path d="M533.939 105.168L526.019 106.12C525.143 106.226 524.318 105.695 524.062 104.863L518.645 87.1564C518.32 86.0953 519.044 85.0021 520.161 84.8676L528.081 83.9149C528.957 83.8097 529.782 84.3402 530.036 85.1725L535.455 102.879C535.78 103.94 535.055 105.033 533.939 105.168Z" fill="#848583"/>
<path d="M544.602 94.4308C544.602 94.4308 543.192 95.2902 542.188 95.0309C541.36 94.8161 540.632 94.7383 539.676 94.0969C538.667 93.4195 536.433 94.3155 535.774 94.7479C533.927 95.9616 527.691 95.9125 527.691 97.1256C527.691 98.3393 530.404 101.75 533.687 102.761C536.971 103.772 543.401 101.682 543.401 101.682L544.602 94.4308Z" fill="#FFB27D"/>
<path d="M544.678 39.1858C544.812 42.7896 541.57 44.546 536.71 43.8609C531.85 43.1793 531.754 39.462 531.754 39.462L531.873 35.8655L532.012 31.6107L532.139 27.8096L543.902 29.3808C543.864 29.6682 543.876 30.3387 543.918 31.2171V31.2206C544.029 33.4993 544.359 37.1751 544.678 39.1858Z" fill="#FFB27D"/>
<path d="M543.922 31.2173C543.922 31.2173 543.922 31.2173 543.918 31.2208C543.806 31.376 541.121 34.9875 531.873 35.8657L532.012 31.6108L543.918 31.2173H543.922Z" fill="#ED975D"/>
<path d="M528.316 32.9806C528.316 32.9806 542.486 37.0786 544.94 28.3443C547.395 19.6096 550.876 14.2561 541.933 11.2705C532.99 8.28477 530.288 11.136 528.749 13.8546C527.211 16.5743 524.694 31.6894 528.316 32.9806Z" fill="#FFB27D"/>
<path d="M544.103 30.2606C544.103 30.2606 549.02 31.8009 550.284 22.8474C550.77 19.4003 552.71 7.31642 542.632 6.8786C532.555 6.43983 527.474 11.8338 526.471 12.7719C518.95 19.8098 536.122 15.5565 538.186 17.5168C540.251 19.4758 537.882 22.212 540.326 23.4694C542.772 24.7261 544.78 24.8969 544.156 27.1526C543.533 29.4073 544.103 30.2606 544.103 30.2606Z" fill="#2F2D2C"/>
<path d="M525.113 12.8343C525.113 12.8343 530.324 15.1336 532.194 15.429C532.752 15.5163 541.037 16.7903 541.037 16.7903L553.026 19.9423C553.026 19.9423 556.183 11.2389 550.72 5.13686L550.718 5.13463C550.581 4.98104 550.437 4.82841 550.29 4.67992C548.8 3.17497 546.745 1.85516 543.935 0.899226C529.691 -3.94224 525.22 12.3194 525.113 12.8343Z" fill="#FCCB0D"/>
<path d="M532.055 15.1625L534.329 15.6606C536.335 13.4705 543.701 5.90915 550.824 5.30182C550.787 5.23586 550.753 5.18202 550.72 5.13645L550.718 5.13421C550.61 4.9784 550.518 4.89778 550.363 4.66772C550.338 4.67123 550.315 4.67505 550.29 4.67951C541.128 6.03342 533.758 13.2083 532.055 15.1625Z" fill="#C19B05"/>
<path d="M541.037 16.7903C541.037 16.7903 542.452 18.6696 542.713 20.383C542.975 22.097 550.794 23.7775 551.415 22.9509C552.037 22.1237 553.026 19.9423 553.026 19.9423L541.037 16.7903Z" fill="#FCCB0D"/>
<path d="M541.037 16.7903C541.037 16.7903 526.448 15.8175 520.094 11.7972C519.609 11.491 519.76 10.7556 520.328 10.6692C521.35 10.5134 523.078 10.3907 525.896 10.528C525.895 10.5277 530.736 15.2366 541.037 16.7903Z" fill="#C19B05"/>
<path d="M500.81 238.841H523.782C524.002 238.799 524.169 238.752 524.27 238.702C525.804 237.946 525.323 232.169 525.139 230.384C525.104 230.054 525.079 229.86 525.079 229.86C525.079 229.86 517.001 223.503 515.889 228.37C515.854 228.522 515.813 228.671 515.77 228.818V228.821C514.368 233.375 508.099 235.443 504.479 236.02C501.712 236.463 500.994 238.048 500.81 238.841Z" fill="#747573"/>
<path d="M541.496 240.415H564.468C564.688 240.373 564.855 240.326 564.955 240.276C566.489 239.52 566.01 233.743 565.825 231.958C565.789 231.628 565.764 231.434 565.764 231.434C565.764 231.434 557.687 225.077 556.575 229.945C556.54 230.097 556.499 230.246 556.456 230.392V230.395C555.054 234.949 548.785 237.017 545.165 237.594C542.398 238.037 541.681 239.622 541.496 240.415Z" fill="#747573"/>
<path d="M513.197 109.324C513.197 109.324 513.172 124.431 513.725 142.581C514.478 167.236 515.352 197.518 515.305 203.245C515.221 213.189 516.058 229.141 516.058 229.141C516.058 229.141 519.703 233.095 527.448 231.871C527.448 231.871 535.391 209.533 538.519 185.648C538.568 185.256 538.618 184.862 538.668 184.468C541.681 160.144 547.025 108.878 547.025 108.878L513.197 109.324Z" fill="#FCCB0D"/>
<path d="M525.856 119.034C525.856 119.034 527.05 141.552 531.295 156.042C535.046 168.842 539.179 180.273 539.179 180.273C539.209 179.88 547.868 193.057 547.898 192.661C549.715 168.223 530.901 109.813 530.901 109.813L525.856 119.034Z" fill="#C19B05"/>
<path d="M528.495 109.985C528.495 109.985 534.4 169.141 543.617 196.857C552.834 224.572 552.022 232.106 552.022 232.106C552.022 232.106 566.043 234.263 568.704 232.688C568.704 232.688 570.229 178.965 563.048 165.418C558.989 157.764 556.685 136.54 557.802 129.459C558.92 122.377 560.529 105.398 560.529 105.398L528.495 109.985Z" fill="#FCCB0D"/>
<path d="M560.529 105.399C560.529 105.399 560.143 154.384 563.048 165.418C565.952 176.453 557.215 167.196 557.215 167.196L545.827 148.107C545.827 148.107 550.461 126.487 550.595 125.107C550.729 123.727 560.529 105.399 560.529 105.399Z" fill="#FCCB0D"/>
<path d="M295.117 232.838V50.5625H312.153V123.934C319.284 115.231 327.267 108.724 336.101 104.412C344.935 100.103 354.621 97.9444 365.158 97.9444C383.878 97.9444 399.867 104.699 413.119 118.193C426.372 131.689 432.994 148.068 432.994 167.33C432.994 186.346 426.306 202.582 412.936 216.038C399.562 229.497 383.475 236.225 364.673 236.225C353.895 236.225 344.128 233.926 335.372 229.334C326.62 224.741 318.881 217.85 312.153 208.665V232.838H295.117V232.838ZM363.265 219.907C372.733 219.907 381.476 217.589 389.49 212.954C397.505 208.323 403.878 201.816 408.613 193.432C413.346 185.055 415.712 176.193 415.712 166.844C415.712 157.498 413.329 148.593 408.551 140.131C403.779 131.669 397.359 125.085 389.306 120.368C381.253 115.654 372.654 113.298 363.511 113.298C354.197 113.298 345.355 115.654 336.98 120.368C328.598 125.085 322.166 131.427 317.676 139.408C313.181 147.383 310.935 156.371 310.935 166.358C310.935 181.587 315.973 194.322 326.052 204.555C336.127 214.79 348.532 219.907 363.265 219.907Z" fill="white"/>
<path d="M540.567 122.405L525.966 133.608C513.82 124.856 501.946 120.479 490.349 120.479C482.97 120.479 476.657 122.284 471.395 125.9C466.138 129.511 463.509 133.729 463.509 138.547C463.509 142.804 465.676 146.859 470.011 150.711C474.346 154.649 483.45 159.265 497.319 164.565C514.23 171.072 525.719 177.337 531.792 183.357C537.751 189.462 540.731 196.327 540.731 203.955C540.731 214.718 535.638 223.832 525.454 231.304C515.274 238.771 502.543 242.503 487.276 242.503C477.09 242.503 467.369 240.854 458.107 237.565C448.846 234.276 441.183 229.735 435.115 223.953L449.394 211.908C460.996 221.625 473.296 226.481 486.305 226.481C495.412 226.481 503.161 224.314 509.557 219.978C515.953 215.641 519.154 210.539 519.154 204.678C519.154 199.861 517.04 195.564 512.816 191.789C508.585 188.096 499.045 183.438 484.199 177.818C468.265 171.716 457.425 165.693 451.682 159.747C445.938 153.807 443.067 147.021 443.067 139.391C443.067 129.433 447.643 121.16 456.798 114.574C465.952 107.991 477.517 104.698 491.491 104.698C507.742 104.699 524.102 110.598 540.567 122.405Z" fill="white"/>
<path d="M545.382 107.847H563.514L607.957 203.706L651.865 107.847H670.122L609.516 239.354H606.352L545.382 107.847Z" fill="white"/>
<path d="M202.43 95.4644C162.536 95.4644 130.197 127.585 130.197 167.205C130.197 206.83 162.536 238.951 202.43 238.951C242.325 238.951 274.664 206.829 274.664 167.205C274.664 127.585 242.325 95.4644 202.43 95.4644ZM204.528 223.552C197.229 218.368 180.653 204.163 187.042 185.674C189.343 179.019 199.678 174.546 206.112 177.626C217.353 183.002 212.312 199.172 212.312 199.172C212.312 199.172 231.764 195.721 239.253 182.597C248.147 167.01 243.171 139.978 212.073 131.453C191.068 125.697 173.931 138.794 167.019 153.143C155.664 176.714 163.514 202.589 167.006 211.784C153.822 201.552 145.336 185.622 145.336 167.713C145.336 136.835 170.537 111.801 201.63 111.801C232.719 111.801 257.924 136.835 257.924 167.713C257.924 197.631 234.271 222.055 204.528 223.552Z" fill="white"/>
<path d="M314.145 96.7817L317.746 96.2808C318.144 96.225 318.314 95.8398 318.15 95.3679L314.643 85.3211C314.433 84.7191 313.776 84.2332 313.269 84.3043L309.667 84.8052C309.269 84.8609 309.099 85.2462 309.263 85.7181L312.77 95.7646C312.98 96.3665 313.637 96.8524 314.145 96.7817Z" fill="#D4D3CE"/>
<path d="M315.42 96.604L319.022 96.1025C319.42 96.0473 319.59 95.6615 319.426 95.1899L315.919 85.1434C315.709 84.5415 315.052 84.0555 314.544 84.1259L310.943 84.6275C310.545 84.6829 310.374 85.0678 310.539 85.5401L314.046 95.5866C314.256 96.1882 314.913 96.6744 315.42 96.604Z" fill="#848583"/>
<path d="M310.992 52.7324C310.992 52.7324 308.392 48.5681 306.328 47.0252C304.265 45.4817 298.815 45.0515 298.603 45.4463C297.949 46.6686 300.764 48.4314 301.349 49.5533C301.934 50.6753 301.683 52.2898 304.457 53.6112C307.321 54.975 308.983 55.8707 308.983 55.8707L310.992 52.7324Z" fill="#FFB27D"/>
<path d="M308.795 52.1648C310.132 50.2064 310.532 50.1047 310.532 50.1047C310.532 50.1047 332.644 58.407 334.754 59.0997C335.849 59.4591 344.872 60.1022 353.3 60.6378C361.112 61.1349 368.413 61.5383 368.413 61.5383L377.934 81.2368C377.934 81.2368 335.892 72.2109 330.582 70.3564C321.806 67.2907 307.73 55.2836 307.73 55.2836C307.73 55.2836 307.745 53.7028 308.795 52.1648Z" fill="#D4D3CE"/>
<path d="M363.728 248.309C363.728 248.309 363.247 256.155 361.805 258H339.625C339.765 257.218 340.394 255.286 343.167 254.796C346.671 254.18 352.537 251.691 354.658 247.009C356.893 242.083 363.728 248.309 363.728 248.309Z" fill="#747573"/>
<path d="M403.089 247.214C403.089 247.214 404.471 257.406 402.573 257.582C402.32 257.606 394.137 257.601 390.935 257.582C386.946 257.559 380.576 257.607 380.576 257.607C379.752 257.642 379.212 256.74 379.632 256.022C380.092 255.235 380.97 254.394 382.645 254.068C386.138 253.388 391.959 250.795 394 246.076C396.146 241.112 403.089 247.214 403.089 247.214Z" fill="#747573"/>
<path d="M353.299 143.888C353.299 143.888 358.877 163.616 374.86 197.871C390.844 232.128 392.077 247.738 392.077 247.738H404.875C404.875 247.738 402.053 206.441 394.503 189.154C386.953 171.866 386.45 127.351 386.45 127.351L353.299 143.888Z" fill="#C19B05"/>
<path d="M369.054 56.6008L363.148 60.8585L354.613 59.1094C354.73 58.3517 355.294 55.2118 355.807 52.3676C355.838 52.2 355.869 52.0317 355.898 51.8683C356.337 49.4482 356.717 47.369 356.717 47.369L364.69 43.5017L367.662 42.0598C367.654 42.1105 367.431 44.7457 367.401 45.1299C366.843 51.9604 369.054 56.6008 369.054 56.6008Z" fill="#FFB27D"/>
<path d="M355.209 54.6635C355.397 54.5895 366.82 51.4162 368.062 51.8021C369.302 52.1879 370.038 54.4481 370.038 54.4481L352.4 59.1771C352.4 59.1767 352.822 55.6095 355.209 54.6635Z" fill="#848583"/>
<path d="M385.971 126.816C384.038 135.13 343.666 109.04 344.203 103.966C344.263 103.409 344.322 102.847 344.381 102.29C345.126 95.2244 345.841 88.3124 345.89 83.8004C345.929 79.8865 346.502 75.885 347.266 72.2502C347.967 68.8933 348.83 65.848 349.579 63.4764C350.107 61.8051 351.094 60.3333 352.401 59.1772C353.328 58.3558 354.417 57.6968 355.621 57.2459C355.947 57.1166 356.282 57.0095 356.622 56.9168C361.485 55.589 368.213 53.9458 370.036 54.447C374.978 55.8165 378.647 64.0002 381.247 74.4364C386.109 93.9708 387.234 121.398 385.971 126.816Z" fill="#D4D3CE"/>
<path d="M366.802 45.2506C365.051 48.5116 358.528 51.3316 355.807 52.3678C355.838 52.2002 355.869 52.032 355.898 51.8685C356.337 49.4484 356.717 47.3693 356.717 47.3693L364.69 43.5019C366.451 43.4751 367.524 43.9091 366.802 45.2506Z" fill="#FCA56B"/>
<path d="M352.842 46.9154C352.842 46.9154 367.225 51.2827 369.882 42.5226C372.538 33.7628 376.183 28.4264 367.112 25.268C358.042 22.1093 355.236 24.9376 353.618 27.6509C352.001 30.3648 349.17 45.5535 352.842 46.9154Z" fill="#FFB27D"/>
<path d="M354.183 26.8071C354.183 26.8071 355.101 37.0005 357.267 36.5582C359.432 36.1156 361.397 35.7874 361.08 38.8607C360.763 41.9337 357.759 45.4818 364.434 46.0254C371.108 46.5687 380.705 29.8138 378.871 26.6414C373.58 17.4881 346.537 15.6406 354.183 26.8071Z" fill="url(#paint0_radial)"/>
<path d="M347.884 124.538C352.035 125.401 347.302 120.838 347.225 119.775C346.892 115.101 344.149 109.479 343.97 103.826L366.301 87.2354C366.301 87.2354 376.782 120.777 347.884 124.538Z" fill="#848583"/>
<path d="M344.203 106.148L351.739 105.929C351.739 105.929 365.361 109.419 368.892 104.683C372.423 99.9468 370.895 76.7002 370.895 76.7002L381.247 74.4365C386.109 95.4147 387.616 124.966 385.971 130.686C379.1 154.593 369.485 184.119 370.446 192.521C372.591 211.293 365.108 248.812 365.108 248.812L352.586 248.391C352.586 248.391 354.358 232.471 349.13 194.966C345.393 168.158 344.554 144.91 344.379 133.826C344.366 133.813 344.35 133.798 344.336 133.784C344.336 133.784 343.666 111.597 344.203 106.148Z" fill="#FCCB0D"/>
<path d="M326.496 92.0268C326.496 92.0268 323.52 91.48 322.745 90.8809C321.598 89.9948 320.698 88.5109 320.138 88.3468C319.195 88.0711 316.884 85.3369 316.691 85.1434C316.616 85.0689 315.992 85.3528 316.143 85.803C316.297 86.2568 316.643 87.2344 316.766 87.5871C317.313 89.1405 317.287 89.6201 315.313 89.0172C315.058 88.9398 310.495 87.5769 310.027 88.551C309.559 89.5248 311.449 94.2133 313.828 95.2247C316.209 96.236 322.084 95.3228 322.508 95.4385C326.101 96.4218 326.496 92.0268 326.496 92.0268Z" fill="#FFB27D"/>
<path d="M325.187 91.3105C325.187 91.3105 347.493 94.5581 349.507 93.5311C352.72 91.8917 348.959 69.0883 348.959 69.0883C348.959 69.0883 348.915 63.8992 354.968 62.5147C360.23 61.3115 365.167 65.1272 365.167 65.1272C365.167 65.1272 369.643 69.146 368.928 73.7529C367.344 83.9651 364.745 104.72 357.902 108.071C349.076 112.394 324.297 97.6189 324.297 97.6189C324.297 97.6189 323.487 96.605 323.66 94.6782C323.812 92.9785 325.187 91.3105 325.187 91.3105Z" fill="#D4D3CE"/>
<path d="M372.902 76.1354L370.895 76.5439C370.895 76.5439 366.653 59.2607 352.401 59.1769C353.328 58.3554 354.417 57.6965 355.621 57.2456C360.844 58.5645 369.913 62.7655 372.902 76.1354Z" fill="#FCCB0D"/>
<path d="M348.377 74.4365C348.377 74.4365 334.07 71.8784 330.581 70.3569C330.581 70.3569 345.789 65.1305 341.296 59.8047C341.296 59.8047 352.077 60.4283 354.612 60.7217C357.148 61.0149 348.377 74.4365 348.377 74.4365Z" fill="#848583"/>
<path d="M303.037 50.4841C303.037 50.4841 299.11 48.2176 298.927 49.1895C298.835 49.6732 300.58 51 301.282 51.5663C301.984 52.1322 303.774 53.2445 303.774 53.2445L303.037 50.4841Z" fill="#FFB27D"/>
<path d="M354.398 58.8337C354.398 58.8337 330.468 58.8337 346.525 103.623C346.525 103.623 366.47 107.581 367.427 80.8937" fill="#D4D3CE"/>
<path d="M186.794 92.8558C188.154 92.0018 191.335 90.4494 191.474 90.9C191.574 91.2234 191.867 91.2645 191.485 91.8145C193.328 91.2282 194.616 91.0405 198.949 92.0209C199.816 92.2169 200.591 92.7296 201.043 93.472C201.462 94.1603 201.596 95.005 200.456 95.6315C198.178 96.886 198.855 96.1079 195.685 97.9385C192.514 99.7706 188.706 100.122 186.494 98.664L183.475 98.0563L183.284 93.2044C183.284 93.2047 185.024 93.0728 186.794 92.8558Z" fill="#FFB27D"/>
<path d="M136.984 54.9435C130.368 59.0738 123.518 53.4615 123.518 53.4615C123.518 53.4615 126.141 46.7251 124.502 37.84C124.436 37.4784 136.042 42.2759 136.391 42.353C136.396 42.353 136.399 42.353 136.399 42.353C136.399 42.353 136.402 42.3813 136.409 42.4336C136.416 42.49 136.423 42.5464 136.43 42.6021C136.612 44.1686 136.738 45.7245 136.822 47.1753C137.078 51.5159 136.984 54.9435 136.984 54.9435Z" fill="#FFB27D"/>
<path d="M136.822 47.1749C131.552 46.6969 127.5 43.7329 126.155 42.0645C125.746 41.5626 136.084 42.328 136.391 42.3525C136.396 42.3525 136.399 42.3525 136.399 42.3525C136.399 42.3525 136.402 42.3809 136.409 42.4332C136.416 42.4755 136.423 42.5316 136.43 42.6017C136.612 44.1685 136.739 45.7241 136.822 47.1749Z" fill="#ED975D"/>
<path d="M137.444 44.0367C137.444 44.0367 125.058 45.215 124.446 37.4691C123.833 29.7223 121.821 24.6574 129.703 23.5775C137.585 22.497 139.357 25.3307 140.189 27.8668C141.021 30.4019 140.65 43.5303 137.444 44.0367Z" fill="#FFB27D"/>
<path d="M124.576 38.9336C124.398 39.0168 121.707 39.4572 118.155 29.0162C117.596 27.3771 117.527 23.9883 119.717 21.3034C121.907 18.6185 128.566 17.1866 133.973 16.909C136.511 16.7787 138.593 17.6652 140.089 18.6424C141.93 19.846 142.413 22.3623 141.172 24.1814C139.212 27.0559 136.319 28.2559 133.507 27.2213C131.623 26.5279 130.449 30.465 130.176 31.406C129.901 32.3476 129.574 33.1155 127.307 31.9295C125.363 30.9134 125.618 34.0186 125.901 35.4722C126.04 36.1892 126.003 36.937 125.732 37.6154C125.524 38.1386 125.171 38.6574 124.576 38.9336Z" fill="#2F2D2C"/>
<path d="M107.46 240.783H98.1939C96.2514 240.783 94.0936 238.786 93.5528 235.132C93.0125 231.474 89.0192 229.481 88.1557 226.489C87.2907 223.497 91.7189 219.285 91.7189 219.285L92.4587 218.309L93.2281 217.292L100.568 219.064C100.568 219.064 100.75 220.858 100.863 223.143C100.941 224.792 100.985 226.7 100.893 228.372C100.677 232.362 101.982 236.657 105.434 237.433C108.89 238.209 107.46 240.783 107.46 240.783Z" fill="#747573"/>
<path d="M158.997 239.804H136.863C136.652 239.761 136.491 239.712 136.394 239.66C134.916 238.879 135.379 232.905 135.556 231.059C135.591 230.718 135.615 230.517 135.615 230.517C135.615 230.517 143.398 223.944 144.468 228.977C144.502 229.134 144.541 229.288 144.583 229.44V229.442C145.934 234.152 151.973 236.29 155.462 236.887C158.128 237.345 158.819 238.985 158.997 239.804Z" fill="#747573"/>
<path d="M154.661 122.019C154.661 122.019 153.623 135.647 152.403 152.027C150.744 174.279 148.75 201.612 148.552 206.79C148.211 215.781 148.193 230.514 148.193 230.514C148.193 230.514 140.975 233.935 134.48 232.495C134.48 232.495 131.315 211.609 129.662 189.886C129.636 189.53 129.611 189.171 129.585 188.813C128.047 166.699 125.656 120.132 125.656 120.132L154.661 122.019Z" fill="#FCCB0D"/>
<path d="M151.513 120.182C148.656 120.377 118.53 119.455 118.537 117.754C118.556 111.836 117.407 102.266 115.972 90.644C115.71 88.4778 115.506 86.3276 115.36 84.2029C114.982 78.6684 115.006 73.3359 115.452 68.5155C116.281 59.5597 119.539 53.6253 123.401 50.2305C123.401 50.2305 126.097 50.6753 129.418 51.1555C133.179 51.6988 134.571 51.4493 137.164 50.6986L141.732 54.6666C144.464 57.2387 146.648 59.9293 147.504 63.668C147.504 63.6683 151.767 120.162 151.513 120.182Z" fill="#D4D3CE"/>
<path d="M121.577 77.9036C121.577 77.9036 124.62 87.5709 134.776 92.2537C144.932 96.9364 138.862 83.3562 138.862 83.3562L121.577 77.9036Z" fill="#848583"/>
<path d="M147.504 63.668L139.607 65.5999L128.739 96.5672C127.179 101.015 122.048 103.887 117.542 103.887L117.638 104.775L118.958 120.661L154.616 122.604C154.616 122.604 154.782 104.134 154.155 98.2194C153.226 89.4596 147.504 63.668 147.504 63.668Z" fill="#FCCB0D"/>
<path d="M185.375 95.9038C185.624 93.5978 184.445 93.1664 184.445 93.1664C184.445 93.1664 161.168 87.9967 159.2 87.2909C157.231 86.5848 140.878 68.1484 140.878 68.1484C140.878 68.1484 134.632 60.508 129.221 61.9317C124.519 63.169 122.563 66.7334 121.811 70.1725C120.914 74.2709 118.098 75.5731 121.577 77.9037C129.387 83.1345 149.581 96.3751 153.31 97.6296C161.609 100.424 184.251 99.0288 184.251 99.0288C184.251 99.0288 185.178 97.715 185.375 95.9038Z" fill="#D4D3CE"/>
<path d="M131.423 56.3307C129.585 54.6177 123.401 50.2306 123.401 50.2306C123.401 50.2306 123.65 49.8158 124.015 49.45C124.372 49.0915 124.8 48.8308 124.8 48.8308C125.586 48.6642 131.679 53.2606 133.709 55.0731C136.152 57.2554 142.934 64.7866 142.934 64.7866L139.607 65.6004C139.607 65.6001 133.588 58.3474 131.423 56.3307Z" fill="#FCCB0D"/>
<path d="M143.228 27.5239C143.228 27.5239 138.117 28.5143 136.395 28.391C135.882 28.354 128.261 27.7773 128.261 27.7773L116.954 28.1243C116.954 28.1243 115.989 19.6047 122.125 15.2316L122.127 15.2304C122.282 15.1198 122.441 15.0118 122.603 14.9092C124.243 13.8599 126.345 13.0964 129.041 12.8189C142.704 11.4156 143.242 27.037 143.228 27.5239Z" fill="#FCCB0D"/>
<path d="M136.575 28.1807L134.452 28.1562C133.135 25.7591 128.191 17.3934 121.998 15.3595C122.044 15.3079 122.086 15.2665 122.125 15.232L122.127 15.2308C122.256 15.1129 122.355 15.059 122.541 14.8828C122.562 14.8914 122.582 14.9007 122.603 14.9096C130.449 18.0418 135.477 26.0602 136.575 28.1807Z" fill="#C19B05"/>
<path d="M128.26 27.7773C128.26 27.7773 126.609 29.1803 126.014 30.6741C125.42 32.1673 118.127 32.0551 117.749 31.1789C117.372 30.302 116.954 28.1243 116.954 28.1243L128.26 27.7773Z" fill="#FCCB0D"/>
<path d="M128.26 27.7773C128.26 27.7773 141.414 29.9409 147.902 27.6339C148.396 27.458 148.418 26.7627 147.932 26.5655C147.059 26.2124 145.55 25.7408 143.02 25.2778C143.02 25.2778 137.731 28.5216 128.26 27.7773Z" fill="#C19B05"/>
<path d="M150.793 121.112C150.793 121.112 151.465 129.615 147.727 145.568C144.985 157.273 129.662 189.886 129.662 189.886C129.636 189.53 129.611 189.171 129.585 188.813C128.047 166.699 125.656 120.132 125.656 120.132L150.793 121.112Z" fill="#C19B05"/>
<path d="M150.793 121.112C150.793 121.112 131.209 172.99 118.906 196.183C106.602 219.376 102.758 225.849 102.758 225.849C102.758 225.849 90.4753 221.702 89.834 219.68C89.834 219.68 99.7725 176.085 108.012 165.17C112.668 159.003 118.137 140.494 118.393 134.021C118.649 127.549 119.335 112.043 119.335 112.043L150.793 121.112Z" fill="#FCCB0D"/>
<path d="M127.287 53.6936C127.287 53.6936 148.415 69.52 158.49 86.8181C168.564 104.116 157.5 93.1362 157.5 93.1362L145.005 87.0463" fill="#D4D3CE"/>
<path d="M118.564 117.558C118.564 117.558 112.091 158.298 108.769 164.069C105.447 169.84 115.096 168.673 115.096 168.673L128.138 150.418L123.519 118.904L118.564 117.558Z" fill="#FCCB0D"/>
<path d="M22.3081 229.27C24.5375 229.27 26.3449 225.141 26.3449 220.047C26.3449 214.952 24.5375 210.823 22.3081 210.823C20.0786 210.823 18.2712 214.952 18.2712 220.047C18.2712 225.141 20.0786 229.27 22.3081 229.27Z" fill="#0C77C8" stroke="#312F55" stroke-miterlimit="10"/>
<path d="M18.1577 222.025L26.1005 221.289C26.1005 221.289 23.2843 237.419 18.1577 222.025Z" fill="#312F55"/>
<path d="M635.803 216.564C635.803 216.564 667.957 205.733 698.482 216.564" stroke="black" stroke-width="3" stroke-miterlimit="10"/>
<path d="M635.803 213.664C635.803 213.664 667.957 202.833 698.482 213.664" stroke="black" stroke-width="3" stroke-miterlimit="10"/>
<path d="M635.803 210.764C635.803 210.764 667.957 199.933 698.482 210.764" stroke="black" stroke-width="3" stroke-miterlimit="10"/>
<path d="M635.803 207.865C635.803 207.865 667.957 197.033 698.482 207.865" stroke="black" stroke-width="3" stroke-miterlimit="10"/>
<path d="M635.803 204.965C635.803 204.965 667.957 194.133 698.482 204.965" stroke="black" stroke-width="3" stroke-miterlimit="10"/>
<path d="M635.803 202.064C635.803 202.064 667.957 191.233 698.482 202.064" stroke="black" stroke-width="3" stroke-miterlimit="10"/>
<path d="M657.509 227.821C680.872 227.821 699.812 220.997 699.812 212.58C699.812 204.163 680.872 197.34 657.509 197.34C634.146 197.34 615.206 204.163 615.206 212.58C615.206 220.997 634.146 227.821 657.509 227.821Z" stroke="black" stroke-width="3" stroke-miterlimit="10"/>
<path d="M661.502 227.821C684.866 227.821 703.805 220.997 703.805 212.58C703.805 204.163 684.866 197.34 661.502 197.34C638.139 197.34 619.199 204.163 619.199 212.58C619.199 220.997 638.139 227.821 661.502 227.821Z" stroke="black" stroke-width="3" stroke-miterlimit="10"/>
<path d="M665.495 227.821C688.859 227.821 707.798 220.997 707.798 212.58C707.798 204.163 688.859 197.34 665.495 197.34C642.132 197.34 623.192 204.163 623.192 212.58C623.192 220.997 642.132 227.821 665.495 227.821Z" stroke="black" stroke-width="3" stroke-miterlimit="10"/>
<path d="M669.489 227.821C692.852 227.821 711.792 220.997 711.792 212.58C711.792 204.163 692.852 197.34 669.489 197.34C646.125 197.34 627.185 204.163 627.185 212.58C627.185 220.997 646.125 227.821 669.489 227.821Z" stroke="black" stroke-width="3" stroke-miterlimit="10"/>
<path d="M673.482 197.34C696.845 197.34 715.785 204.164 715.785 212.58C715.785 220.998 696.845 227.821 673.482 227.821C650.119 227.821 631.179 220.998 631.179 212.58C631.179 204.164 650.119 197.34 673.482 197.34Z" stroke="black" stroke-width="3" stroke-miterlimit="10"/>
<path d="M677.476 227.821C700.839 227.821 719.779 220.997 719.779 212.58C719.779 204.163 700.839 197.34 677.476 197.34C654.113 197.34 635.173 204.163 635.173 212.58C635.173 220.997 654.113 227.821 677.476 227.821Z" stroke="black" stroke-width="3" stroke-miterlimit="10"/>
<path d="M614.282 212.271C614.282 212.271 662.8 248.373 720.004 213.423" stroke="black" stroke-width="3" stroke-miterlimit="10"/>
<path d="M614.282 212.271C614.282 212.271 662.8 248.373 720.004 213.423" stroke="url(#paint1_linear)" stroke-width="3" stroke-miterlimit="10"/>
<path d="M614.461 215.191C614.461 215.191 662.98 251.293 720.184 216.343" stroke="black" stroke-width="3" stroke-miterlimit="10"/>
<path d="M614.461 215.191C614.461 215.191 662.98 251.293 720.184 216.343" stroke="url(#paint2_linear)" stroke-width="3" stroke-miterlimit="10"/>
<path d="M614.64 218.11C614.64 218.11 663.159 254.212 720.363 219.263" stroke="black" stroke-width="3" stroke-miterlimit="10"/>
<path d="M614.64 218.11C614.64 218.11 663.159 254.212 720.363 219.263" stroke="url(#paint3_linear)" stroke-width="3" stroke-miterlimit="10"/>
<path d="M614.819 221.03C614.819 221.03 663.338 257.133 720.542 222.183" stroke="black" stroke-width="3" stroke-miterlimit="10"/>
<path d="M614.819 221.03C614.819 221.03 663.338 257.133 720.542 222.183" stroke="url(#paint4_linear)" stroke-width="3" stroke-miterlimit="10"/>
<path d="M614.999 223.95C614.999 223.95 663.517 260.052 720.721 225.102" stroke="black" stroke-width="3" stroke-miterlimit="10"/>
<path d="M614.999 223.95C614.999 223.95 663.517 260.052 720.721 225.102" stroke="url(#paint5_linear)" stroke-width="3" stroke-miterlimit="10"/>
<path d="M615.178 226.87C615.178 226.87 663.696 262.972 720.9 228.022" stroke="black" stroke-width="3" stroke-miterlimit="10"/>
<path d="M615.178 226.87C615.178 226.87 663.696 262.972 720.9 228.022" stroke="url(#paint6_linear)" stroke-width="3" stroke-miterlimit="10"/>
<path d="M615.357 229.789C615.357 229.789 663.876 265.892 721.08 230.942" stroke="black" stroke-width="3" stroke-miterlimit="10"/>
<path d="M615.357 229.789C615.357 229.789 663.876 265.892 721.08 230.942" stroke="url(#paint7_linear)" stroke-width="3" stroke-miterlimit="10"/>
<path d="M699.587 214.157C699.587 214.157 719.494 213.895 715.908 235.36" stroke="white" stroke-width="3" stroke-miterlimit="10" stroke-linecap="round"/>
<path d="M636.647 213.641C636.647 213.641 616.121 213.064 619.707 234.53" stroke="white" stroke-width="3" stroke-miterlimit="10" stroke-linecap="round"/>
<path d="M649.559 221.862C649.559 221.862 635.803 220.467 642.206 243.581" stroke="white" stroke-width="3" stroke-miterlimit="10" stroke-linecap="round"/>
<path d="M716.664 197.454C716.664 197.454 684.509 186.623 653.984 197.454" stroke="black" stroke-width="3" stroke-miterlimit="10"/>
<path d="M716.664 197.454C716.664 197.454 684.509 186.623 653.984 197.454" stroke="url(#paint8_linear)" stroke-width="3" stroke-miterlimit="10"/>
<path d="M716.664 194.555C716.664 194.555 684.509 183.723 653.984 194.555" stroke="black" stroke-width="3" stroke-miterlimit="10"/>
<path d="M716.664 194.555C716.664 194.555 684.509 183.723 653.984 194.555" stroke="url(#paint9_linear)" stroke-width="3" stroke-miterlimit="10"/>
<path d="M716.664 191.654C716.664 191.654 684.509 180.823 653.984 191.654" stroke="black" stroke-width="3" stroke-miterlimit="10"/>
<path d="M716.664 191.654C716.664 191.654 684.509 180.823 653.984 191.654" stroke="url(#paint10_linear)" stroke-width="3" stroke-miterlimit="10"/>
<path d="M716.664 188.754C716.664 188.754 684.509 177.923 653.984 188.754" stroke="black" stroke-width="3" stroke-miterlimit="10"/>
<path d="M716.664 188.754C716.664 188.754 684.509 177.923 653.984 188.754" stroke="url(#paint11_linear)" stroke-width="3" stroke-miterlimit="10"/>
<path d="M716.664 185.855C716.664 185.855 684.509 175.023 653.984 185.855" stroke="black" stroke-width="3" stroke-miterlimit="10"/>
<path d="M716.664 185.855C716.664 185.855 684.509 175.023 653.984 185.855" stroke="url(#paint12_linear)" stroke-width="3" stroke-miterlimit="10"/>
<path d="M716.664 182.954C716.664 182.954 684.509 172.122 653.984 182.954" stroke="black" stroke-width="3" stroke-miterlimit="10"/>
<path d="M716.664 182.954C716.664 182.954 684.509 172.122 653.984 182.954" stroke="url(#paint13_linear)" stroke-width="3" stroke-miterlimit="10"/>
<path d="M694.958 208.711C718.321 208.711 737.261 201.888 737.261 193.47C737.261 185.053 718.321 178.23 694.958 178.23C671.595 178.23 652.655 185.053 652.655 193.47C652.655 201.888 671.595 208.711 694.958 208.711Z" stroke="black" stroke-width="3" stroke-miterlimit="10"/>
<path d="M690.964 208.711C714.327 208.711 733.267 201.887 733.267 193.47C733.267 185.053 714.327 178.229 690.964 178.229C667.601 178.229 648.662 185.053 648.662 193.47C648.662 201.887 667.601 208.711 690.964 208.711Z" stroke="black" stroke-width="3" stroke-miterlimit="10"/>
<path d="M686.971 208.711C710.334 208.711 729.273 201.888 729.273 193.47C729.273 185.053 710.334 178.23 686.971 178.23C663.608 178.23 644.669 185.053 644.669 193.47C644.669 201.888 663.608 208.711 686.971 208.711Z" stroke="black" stroke-width="3" stroke-miterlimit="10"/>
<path d="M682.978 208.711C706.341 208.711 725.28 201.888 725.28 193.47C725.28 185.053 706.341 178.23 682.978 178.23C659.615 178.23 640.676 185.053 640.676 193.47C640.676 201.888 659.615 208.711 682.978 208.711Z" stroke="black" stroke-width="3" stroke-miterlimit="10"/>
<path d="M678.985 208.711C702.348 208.711 721.287 201.888 721.287 193.47C721.287 185.053 702.348 178.23 678.985 178.23C655.621 178.23 636.682 185.053 636.682 193.47C636.682 201.888 655.621 208.711 678.985 208.711Z" stroke="black" stroke-width="3" stroke-miterlimit="10"/>
<path d="M674.991 208.711C698.354 208.711 717.294 201.888 717.294 193.47C717.294 185.053 698.354 178.23 674.991 178.23C651.628 178.23 632.688 185.053 632.688 193.47C632.688 201.888 651.628 208.711 674.991 208.711Z" stroke="black" stroke-width="3" stroke-miterlimit="10"/>
<path d="M738.185 193.161C738.185 193.161 689.667 229.263 632.463 194.314" stroke="black" stroke-width="3" stroke-miterlimit="10"/>
<path d="M738.185 193.161C738.185 193.161 689.667 229.263 632.463 194.314" stroke="url(#paint14_linear)" stroke-width="3" stroke-miterlimit="10"/>
<path d="M738.006 196.081C738.006 196.081 689.487 232.183 632.283 197.234" stroke="black" stroke-width="3" stroke-miterlimit="10"/>
<path d="M738.006 196.081C738.006 196.081 689.487 232.183 632.283 197.234" stroke="url(#paint15_linear)" stroke-width="3" stroke-miterlimit="10"/>
<path d="M737.827 199C737.827 199 689.308 235.102 632.104 200.153" stroke="black" stroke-width="3" stroke-miterlimit="10"/>
<path d="M737.827 199C737.827 199 689.308 235.102 632.104 200.153" stroke="url(#paint16_linear)" stroke-width="3" stroke-miterlimit="10"/>
<path d="M737.647 201.92C737.647 201.92 689.129 238.022 631.925 203.073" stroke="black" stroke-width="3" stroke-miterlimit="10"/>
<path d="M737.647 201.92C737.647 201.92 689.129 238.022 631.925 203.073" stroke="url(#paint17_linear)" stroke-width="3" stroke-miterlimit="10"/>
<path d="M737.468 204.84C737.468 204.84 688.95 240.942 631.746 205.993" stroke="black" stroke-width="3" stroke-miterlimit="10"/>
<path d="M737.468 204.84C737.468 204.84 688.95 240.942 631.746 205.993" stroke="url(#paint18_linear)" stroke-width="3" stroke-miterlimit="10"/>
<path d="M737.289 207.76C737.289 207.76 688.771 243.862 631.566 208.912" stroke="black" stroke-width="3" stroke-miterlimit="10"/>
<path d="M737.289 207.76C737.289 207.76 688.771 243.862 631.566 208.912" stroke="url(#paint19_linear)" stroke-width="3" stroke-miterlimit="10"/>
<path d="M737.11 210.679C737.11 210.679 688.591 246.781 631.387 211.832" stroke="black" stroke-width="3" stroke-miterlimit="10"/>
<path d="M737.11 210.679C737.11 210.679 688.591 246.781 631.387 211.832" stroke="url(#paint20_linear)" stroke-width="3" stroke-miterlimit="10"/>
<path d="M652.879 195.048C652.879 195.048 632.973 194.785 636.559 216.251" stroke="white" stroke-width="3" stroke-miterlimit="10" stroke-linecap="round"/>
<path d="M715.819 194.531C715.819 194.531 736.346 193.954 732.76 215.42" stroke="white" stroke-width="3" stroke-miterlimit="10" stroke-linecap="round"/>
<path d="M702.908 202.752C702.908 202.752 716.664 201.357 710.261 224.471" stroke="white" stroke-width="3" stroke-miterlimit="10" stroke-linecap="round"/>
<defs>
<radialGradient id="paint0_radial" cx="0" cy="0" r="1" gradientUnits="userSpaceOnUse" gradientTransform="translate(365.965 32.5648) rotate(180) scale(13.4931 13.1335)">
<stop offset="0.5744" stop-color="#272524"/>
<stop offset="0.7977" stop-color="#272524"/>
<stop offset="1" stop-color="#272524"/>
</radialGradient>
<linearGradient id="paint1_linear" x1="667.143" y1="212.271" x2="667.143" y2="228.663" gradientUnits="userSpaceOnUse">
<stop stop-color="white" stop-opacity="0"/>
<stop offset="0.510417"/>
<stop offset="1" stop-color="white" stop-opacity="0"/>
</linearGradient>
<linearGradient id="paint2_linear" x1="667.322" y1="215.191" x2="667.322" y2="231.583" gradientUnits="userSpaceOnUse">
<stop stop-color="white" stop-opacity="0"/>
<stop offset="0.510417"/>
<stop offset="1" stop-color="white" stop-opacity="0"/>
</linearGradient>
<linearGradient id="paint3_linear" x1="667.501" y1="218.11" x2="667.501" y2="234.502" gradientUnits="userSpaceOnUse">
<stop stop-color="white" stop-opacity="0"/>
<stop offset="0.510417"/>
<stop offset="1" stop-color="white" stop-opacity="0"/>
</linearGradient>
<linearGradient id="paint4_linear" x1="667.681" y1="221.03" x2="667.681" y2="237.423" gradientUnits="userSpaceOnUse">
<stop stop-color="white" stop-opacity="0"/>
<stop offset="0.510417"/>
<stop offset="1" stop-color="white" stop-opacity="0"/>
</linearGradient>
<linearGradient id="paint5_linear" x1="667.86" y1="223.95" x2="667.86" y2="240.342" gradientUnits="userSpaceOnUse">
<stop stop-color="white" stop-opacity="0"/>
<stop offset="0.510417"/>
<stop offset="1" stop-color="white" stop-opacity="0"/>
</linearGradient>
<linearGradient id="paint6_linear" x1="668.039" y1="226.87" x2="668.039" y2="243.262" gradientUnits="userSpaceOnUse">
<stop stop-color="white" stop-opacity="0"/>
<stop offset="0.510417"/>
<stop offset="1" stop-color="white" stop-opacity="0"/>
</linearGradient>
<linearGradient id="paint7_linear" x1="668.219" y1="229.789" x2="668.219" y2="246.182" gradientUnits="userSpaceOnUse">
<stop stop-color="white" stop-opacity="0"/>
<stop offset="0.510417"/>
<stop offset="1" stop-color="white" stop-opacity="0"/>
</linearGradient>
<linearGradient id="paint8_linear" x1="685.324" y1="192.64" x2="685.324" y2="197.454" gradientUnits="userSpaceOnUse">
<stop stop-color="white" stop-opacity="0"/>
<stop offset="0.557292"/>
<stop offset="1" stop-color="white" stop-opacity="0"/>
</linearGradient>
<linearGradient id="paint9_linear" x1="685.324" y1="189.741" x2="685.324" y2="194.555" gradientUnits="userSpaceOnUse">
<stop stop-color="white" stop-opacity="0"/>
<stop offset="0.557292"/>
<stop offset="1" stop-color="white" stop-opacity="0"/>
</linearGradient>
<linearGradient id="paint10_linear" x1="685.324" y1="186.84" x2="685.324" y2="191.654" gradientUnits="userSpaceOnUse">
<stop stop-color="white" stop-opacity="0"/>
<stop offset="0.557292"/>
<stop offset="1" stop-color="white" stop-opacity="0"/>
</linearGradient>
<linearGradient id="paint11_linear" x1="685.324" y1="183.94" x2="685.324" y2="188.754" gradientUnits="userSpaceOnUse">
<stop stop-color="white" stop-opacity="0"/>
<stop offset="0.557292"/>
<stop offset="1" stop-color="white" stop-opacity="0"/>
</linearGradient>
<linearGradient id="paint12_linear" x1="685.324" y1="181.041" x2="685.324" y2="185.855" gradientUnits="userSpaceOnUse">
<stop stop-color="white" stop-opacity="0"/>
<stop offset="0.557292"/>
<stop offset="1" stop-color="white" stop-opacity="0"/>
</linearGradient>
<linearGradient id="paint13_linear" x1="685.324" y1="178.14" x2="685.324" y2="182.954" gradientUnits="userSpaceOnUse">
<stop stop-color="white" stop-opacity="0"/>
<stop offset="0.557292"/>
<stop offset="1" stop-color="white" stop-opacity="0"/>
</linearGradient>
<linearGradient id="paint14_linear" x1="685.324" y1="193.161" x2="685.324" y2="209.553" gradientUnits="userSpaceOnUse">
<stop stop-color="white" stop-opacity="0"/>
<stop offset="0.453125"/>
<stop offset="1" stop-color="white" stop-opacity="0"/>
</linearGradient>
<linearGradient id="paint15_linear" x1="685.145" y1="196.081" x2="685.145" y2="212.473" gradientUnits="userSpaceOnUse">
<stop stop-color="white" stop-opacity="0"/>
<stop offset="0.453125"/>
<stop offset="1" stop-color="white" stop-opacity="0"/>
</linearGradient>
<linearGradient id="paint16_linear" x1="684.965" y1="199" x2="684.965" y2="215.393" gradientUnits="userSpaceOnUse">
<stop stop-color="white" stop-opacity="0"/>
<stop offset="0.453125"/>
<stop offset="1" stop-color="white" stop-opacity="0"/>
</linearGradient>
<linearGradient id="paint17_linear" x1="684.786" y1="201.92" x2="684.786" y2="218.312" gradientUnits="userSpaceOnUse">
<stop stop-color="white" stop-opacity="0"/>
<stop offset="0.453125"/>
<stop offset="1" stop-color="white" stop-opacity="0"/>
</linearGradient>
<linearGradient id="paint18_linear" x1="684.607" y1="204.84" x2="684.607" y2="221.232" gradientUnits="userSpaceOnUse">
<stop stop-color="white" stop-opacity="0"/>
<stop offset="0.453125"/>
<stop offset="1" stop-color="white" stop-opacity="0"/>
</linearGradient>
<linearGradient id="paint19_linear" x1="684.428" y1="207.76" x2="684.428" y2="224.152" gradientUnits="userSpaceOnUse">
<stop stop-color="white" stop-opacity="0"/>
<stop offset="0.453125"/>
<stop offset="1" stop-color="white" stop-opacity="0"/>
</linearGradient>
<linearGradient id="paint20_linear" x1="684.249" y1="210.679" x2="684.249" y2="227.072" gradientUnits="userSpaceOnUse">
<stop stop-color="white" stop-opacity="0"/>
<stop offset="0.453125"/>
<stop offset="1" stop-color="white" stop-opacity="0"/>
</linearGradient>
</defs>
</svg>
