<svg width="800" height="478" viewBox="0 0 800 478" fill="none" xmlns="http://www.w3.org/2000/svg">
<path d="M924.783 462.349C924.27 466.786 882.743 461.634 882.166 465.998L623.057 467H44.0583C44.0583 467 -3.35213 295.302 32.2533 216.496C78.8481 113.365 181.209 141.188 280.836 80.8064C577.685 -99.1083 797.258 75.4839 810.536 90.0076C827.058 108.079 841.859 127.856 855.08 148.678C911.882 238.328 937.556 350.017 924.783 462.349Z" fill="#F3F8FC"/>
<path d="M864.391 463.582C864.286 462.568 864.19 461.554 864.109 460.539C864.038 460.021 863.959 459.505 863.859 458.989C863.782 458.597 863.815 458.238 863.928 457.924C862.937 441.996 864.521 426.018 865.647 410.125C867.509 383.823 869.103 357.563 869.44 331.194C869.773 305.221 869.921 279.255 870.419 253.283C870.933 226.417 871.373 199.445 870.515 172.538H857.807V87.6751H786.44V142.768H770.163V77H698.797V200.311H608.542V272.217H574.823V240.2H497.349V259.139H452.874V174.377H397.937V237.116H343V467H864.486C864.476 465.86 864.454 464.719 864.391 463.582Z" fill="#E8F0FD"/>
<path d="M346.289 81.6701C339.409 85.8572 331.875 88.8881 324.641 92.4569C322.502 93.5124 320.393 94.6165 318.293 95.7354V467.878H352.27V77.4509C350.4 78.9978 348.384 80.3955 346.289 81.6701Z" fill="#DEEDFF"/>
<path d="M471.023 447.693C471.023 447.693 447.041 434.357 458.233 416.257C458.233 416.257 467.186 405.143 476.778 402.286C476.778 402.286 471.663 429.276 476.778 429.911C481.895 430.546 480.296 399.428 480.296 399.428C480.296 399.428 505.556 387.362 515.469 388.314C515.469 388.314 499.801 414.669 504.917 414.035C510.033 413.399 527.62 386.727 527.62 386.727C527.62 386.727 553.521 381.964 557.677 397.205C561.834 412.447 555.119 420.068 551.282 421.02C547.444 421.973 522.823 421.656 523.463 424.831C524.102 428.006 540.73 433.087 550.002 430.229C550.002 430.229 539.771 455.314 526.341 454.044C512.911 452.774 508.755 444.518 500.44 443.883C492.127 443.248 486.052 445.471 490.208 447.693C494.365 449.916 508.435 448.422 515.15 454.091C521.864 459.76 527.3 463.253 514.83 465.793C502.359 468.334 479.976 466.746 475.5 457.22C471.023 447.693 471.023 447.693 471.023 447.693Z" fill="#B7D3F3"/>
<path d="M471.024 447.693C471.024 447.693 471.305 457.298 465.704 468.78C466.955 468.059 468.689 467.204 467.359 468.868C467.357 468.87 467.355 468.871 467.355 468.872C467.101 469.19 466.736 469.599 466.235 470.118H467.191C469.59 465.202 473.146 458.582 475.5 457.219C475.5 457.219 460.471 436.262 545.846 401.968C545.846 401.968 478.698 423.561 471.024 447.693Z" fill="#A1B0C2"/>
<path d="M179.047 252.85C205.024 252.85 226.083 231.937 226.083 206.14C226.083 180.343 205.024 159.43 179.047 159.43C153.069 159.43 132.01 180.343 132.01 206.14C132.01 231.937 153.069 252.85 179.047 252.85Z" fill="#B7D3F3"/>
<path d="M179.047 249.081C202.928 249.081 222.288 229.855 222.288 206.14C222.288 182.424 202.928 163.199 179.047 163.199C155.165 163.199 135.805 182.424 135.805 206.14C135.805 229.855 155.165 249.081 179.047 249.081Z" fill="#DEEDFF"/>
<path d="M180.372 174.906C181.447 174.906 182.319 174.04 182.319 172.972C182.319 171.904 181.447 171.038 180.372 171.038C179.296 171.038 178.424 171.904 178.424 172.972C178.424 174.04 179.296 174.906 180.372 174.906Z" fill="#B7D3F3"/>
<path d="M195.841 178.579C196.917 178.579 197.788 177.713 197.788 176.645C197.788 175.577 196.917 174.711 195.841 174.711C194.766 174.711 193.894 175.577 193.894 176.645C193.894 177.713 194.766 178.579 195.841 178.579Z" fill="#B7D3F3"/>
<path d="M208.657 189.885C209.732 189.885 210.604 189.02 210.604 187.952C210.604 186.884 209.732 186.019 208.657 186.019C207.582 186.019 206.71 186.884 206.71 187.952C206.71 189.02 207.582 189.885 208.657 189.885Z" fill="#B7D3F3"/>
<path d="M214.27 206.634C215.345 206.634 216.217 205.768 216.217 204.7C216.217 203.632 215.345 202.767 214.27 202.767C213.194 202.767 212.322 203.632 212.322 204.7C212.322 205.768 213.194 206.634 214.27 206.634Z" fill="#B7D3F3"/>
<path d="M209.488 225.146C210.563 225.146 211.435 224.281 211.435 223.212C211.435 222.144 210.563 221.278 209.488 221.278C208.412 221.278 207.54 222.144 207.54 223.212C207.54 224.281 208.412 225.146 209.488 225.146Z" fill="#B7D3F3"/>
<path d="M197.259 237.322C198.334 237.322 199.206 236.456 199.206 235.388C199.206 234.32 198.334 233.454 197.259 233.454C196.183 233.454 195.311 234.32 195.311 235.388C195.311 236.456 196.183 237.322 197.259 237.322Z" fill="#B7D3F3"/>
<path d="M180.372 242.23C181.447 242.23 182.319 241.365 182.319 240.297C182.319 239.229 181.447 238.363 180.372 238.363C179.296 238.363 178.424 239.229 178.424 240.297C178.424 241.365 179.296 242.23 180.372 242.23Z" fill="#B7D3F3"/>
<path d="M164.841 178.579C165.916 178.579 166.788 177.713 166.788 176.645C166.788 175.577 165.916 174.711 164.841 174.711C163.765 174.711 162.894 175.577 162.894 176.645C162.894 177.713 163.765 178.579 164.841 178.579Z" fill="#B7D3F3"/>
<path d="M152.025 189.885C153.1 189.885 153.972 189.02 153.972 187.952C153.972 186.884 153.1 186.019 152.025 186.019C150.95 186.019 150.078 186.884 150.078 187.952C150.078 189.02 150.95 189.885 152.025 189.885Z" fill="#B7D3F3"/>
<path d="M146.412 206.634C147.488 206.634 148.359 205.768 148.359 204.7C148.359 203.632 147.488 202.767 146.412 202.767C145.337 202.767 144.465 203.632 144.465 204.7C144.465 205.768 145.337 206.634 146.412 206.634Z" fill="#B7D3F3"/>
<path d="M151.194 225.146C152.27 225.146 153.142 224.281 153.142 223.212C153.142 222.144 152.27 221.278 151.194 221.278C150.119 221.278 149.247 222.144 149.247 223.212C149.247 224.281 150.119 225.146 151.194 225.146Z" fill="#B7D3F3"/>
<path d="M163.423 237.322C164.499 237.322 165.371 236.456 165.371 235.388C165.371 234.32 164.499 233.454 163.423 233.454C162.347 233.454 161.475 234.32 161.475 235.388C161.475 236.456 162.347 237.322 163.423 237.322Z" fill="#B7D3F3"/>
<path d="M179.729 215.148C181.099 215.148 182.209 214.046 182.209 212.685C182.209 211.325 181.099 210.222 179.729 210.222C178.36 210.222 177.249 211.325 177.249 212.685C177.249 214.046 178.36 215.148 179.729 215.148Z" fill="#B7D3F3"/>
<path d="M180.068 181.92H179.391V212.685H180.068V181.92Z" fill="#B7D3F3"/>
<path d="M196.461 200.601L195.207 199.015L178.784 211.819L180.038 213.406L196.461 200.601Z" fill="#B7D3F3"/>
<path d="M483.571 349.503C493.03 359.599 491.383 368.283 489.003 370.607C486.622 372.936 468.627 382.871 470.436 385.065C472.242 387.263 486.451 384.325 491.968 378.275C491.968 378.275 495.154 401.954 484.875 406.522C474.596 411.091 468.091 406.41 461.791 409.356C455.493 412.302 452.027 416.538 455.982 416.543C459.936 416.546 469.51 409.568 476.778 411.188C478.493 411.568 480.107 411.885 481.465 412.241L467.693 428.951C460.736 431.917 453.48 433.158 449.341 430.01C449.024 429.769 448.723 429.54 448.435 429.319C442.065 424.476 442.065 424.476 442.065 424.476C442.065 424.476 425.126 424.169 420.594 412.313C419.841 410.344 419.43 408.056 419.495 405.397C419.495 405.397 421.289 393.079 427.041 386.898C427.041 386.898 431.253 399.497 435.056 405.401C436.396 407.484 437.685 408.733 438.721 408.311C439.857 407.85 439.501 405.608 438.415 402.641C435.696 395.212 428.383 383.227 428.383 383.227C428.383 383.227 431.875 377.995 436.306 372.45C438.293 369.963 440.468 367.412 442.601 365.244C444.956 362.848 447.26 360.924 449.197 360.066C449.197 360.066 449.192 360.631 449.194 361.59C449.199 363.015 449.218 365.311 449.293 367.912C449.513 375.632 450.217 386.037 452.419 384.368C454.203 383.018 455.458 374.866 456.253 367.324C456.997 360.304 457.339 353.81 457.339 353.81C457.339 353.81 474.11 339.406 483.571 349.503Z" fill="#B7D3F3"/>
<path d="M477.004 358.088C477.004 358.088 437.427 402.595 442.065 424.477C442.065 424.477 446.863 432.714 447.228 445.09L449.242 448.783C449.242 448.783 447.497 433.32 449.34 430.011C449.34 430.011 429.578 419.979 477.004 358.088Z" fill="#B7D3F3"/>
<path d="M448.743 443.087C448.846 443.867 448.941 444.981 449.016 446.523L449.02 446.557C449.046 447.091 449.101 447.638 449.18 448.192C449.297 449.04 449.47 449.91 449.692 450.791L447.92 452.941C447.051 448.3 447.228 445.092 447.228 445.092C447.228 445.092 447.227 445.088 447.228 445.083C447.266 444.824 448.159 438.723 448.743 443.087Z" fill="#B7D3F3"/>
<path d="M334.086 385.744C325.876 393.722 327.306 400.585 329.372 402.422C331.438 404.262 347.054 412.114 345.484 413.848C343.917 415.585 331.586 413.263 326.798 408.482C326.798 408.482 324.034 427.194 332.954 430.804C341.874 434.415 347.52 430.716 352.986 433.044C358.453 435.372 361.46 438.719 358.027 438.724C354.597 438.726 346.287 433.212 339.981 434.492C338.492 434.792 337.092 435.043 335.913 435.324L347.865 448.529C353.902 450.873 360.199 451.854 363.791 449.367C364.066 449.176 364.327 448.995 364.577 448.821C370.106 444.994 370.106 444.994 370.106 444.994C370.106 444.994 384.806 444.75 388.738 435.381C389.393 433.825 389.749 432.017 389.692 429.916C389.692 429.916 388.136 420.181 383.144 415.296C383.144 415.296 379.489 425.254 376.188 429.919C375.025 431.565 373.906 432.552 373.007 432.218C372.022 431.854 372.331 430.082 373.274 427.738C375.633 421.867 381.98 412.395 381.98 412.395C381.98 412.395 378.949 408.261 375.104 403.879C373.379 401.914 371.491 399.897 369.64 398.184C367.596 396.291 365.597 394.77 363.916 394.092C363.916 394.092 363.921 394.539 363.918 395.296C363.915 396.423 363.897 398.237 363.833 400.293C363.642 406.393 363.031 414.616 361.12 413.297C359.572 412.23 358.483 405.788 357.793 399.827C357.147 394.28 356.85 389.148 356.85 389.148C356.85 389.148 342.296 377.765 334.086 385.744Z" fill="#B7D3F3"/>
<path d="M339.785 392.529C339.785 392.529 374.131 427.702 370.106 444.993C370.106 444.993 365.942 451.503 365.625 461.284L363.877 464.202C363.877 464.202 365.391 451.982 363.792 449.367C363.792 449.367 380.943 441.439 339.785 392.529Z" fill="#B7D3F3"/>
<path d="M364.31 459.7C364.221 460.317 364.138 461.197 364.073 462.415L364.07 462.442C364.047 462.864 363.999 463.296 363.931 463.734C363.83 464.404 363.68 465.091 363.487 465.788L365.024 467.486C365.779 463.819 365.626 461.284 365.626 461.284C365.626 461.284 365.626 461.281 365.625 461.276C365.592 461.072 364.818 456.252 364.31 459.7Z" fill="#B7D3F3"/>
<path d="M114.202 348.856H108.236L115.542 455.916H130.053L114.202 348.856Z" fill="#B7D3F3"/>
<path d="M108.236 348.712C108.236 348.712 140.817 331.004 185.457 342.785L114.202 348.712H108.236Z" fill="#B7D3F3"/>
<path d="M130.053 456.794L114.202 348.712C114.202 348.712 164.122 329.301 202.853 348.712L225.891 456.113L130.053 456.794Z" fill="#D2E3FC"/>
<path d="M294.672 341.902C294.672 341.902 240.085 318.437 187.23 343.409C134.375 368.381 193.256 358.605 193.256 358.605L269.933 366.905L294.672 341.902Z" fill="#2B478B"/>
<path d="M299.612 470.118H191.058C189.453 465.939 188.046 461.473 186.813 456.825C183.718 445.197 181.713 432.379 180.437 419.827C180.42 419.669 180.404 419.503 180.387 419.345C178.197 397.572 178.185 376.628 178.482 364.047C178.651 356.768 178.919 352.282 178.936 352.066V352.06C179.167 351.954 179.401 351.853 179.632 351.753C185.113 349.283 182.214 348.647 189.913 345.831C189.941 345.825 191.834 343.079 191.834 343.079C196.282 341.45 202.501 341.83 209.096 340.725C216.973 339.407 223.074 337.054 229.308 335.988C236.653 334.74 243.303 334.146 249.263 334.011C249.531 333.999 249.794 333.999 250.062 333.993C251.634 333.964 253.157 333.97 254.63 334.005C269.491 334.346 279.378 337.524 284.379 339.643C285.075 339.937 285.671 340.213 286.17 340.461C286.236 340.489 286.302 340.52 286.367 340.549C286.931 340.82 287.37 341.049 287.676 341.214C287.714 341.232 287.759 341.255 287.796 341.284C287.944 341.367 288.087 341.455 288.223 341.543L296.05 429.925L299.612 470.118Z" fill="#2B478B"/>
<path d="M407.718 450.806C396.84 456.084 332.219 457.552 326.005 455.682C322.819 454.721 309.482 442.442 296.063 427.336C296.051 427.326 296.051 427.326 296.051 427.326C283.354 413.039 270.552 396.221 266.234 384.119C257.352 359.248 264.987 337.166 264.987 337.166C264.987 337.166 287.869 338.511 294.672 342.64C305.074 348.953 333.427 419.661 338.57 421.615C343.715 423.58 401.828 424.665 408.804 428.126C408.805 428.126 418.583 445.529 407.718 450.806Z" fill="#2B478B"/>
<path d="M188.027 460.871C186.349 456.724 184.877 452.292 183.589 447.678C180.353 436.137 178.257 423.416 176.923 410.958C176.905 410.8 176.888 410.637 176.871 410.479C176.957 410.52 177.1 410.758 177.193 410.642C181.611 405.168 185.108 396.996 199.718 418.805C202.633 423.15 212.934 457.284 214.972 462.371L188.027 460.871Z" fill="#233862"/>
<path d="M207.469 452.877L228.424 455.65C228.424 455.65 268.031 468.589 259.636 468.589C251.9 468.589 209.679 468.589 209.679 468.589L207.469 452.877Z" fill="#EA9E6A"/>
<path d="M215.321 468.642H104.741C104.445 467.308 104.649 457.025 105.039 456.097C108.331 448.277 114.756 435.403 122.156 421.59C127.599 411.428 133.563 400.757 139.196 391.213C147.015 377.961 154.179 366.877 158.386 362.33C161.702 358.756 165.893 355.755 170.26 353.282C173.966 351.181 177.802 349.457 181.336 348.079V348.073C181.585 347.973 181.838 347.879 182.087 347.784C189.771 344.855 195.864 343.571 195.864 343.571C195.864 343.571 195.946 346.85 195.953 351.891C195.976 366.522 195.379 396.004 190.414 403.197C189.031 405.204 187.018 408.174 183.797 411.727C183.702 411.827 179.1 417.785 177.344 420.12C166.54 434.486 151.146 444.591 149.367 446.325C149.243 446.441 149.184 446.502 149.184 446.502H149.396L180.343 446.908L189.835 447.031L209.516 447.286C210.876 447.836 211.933 448.743 212.744 449.866C214.648 452.483 215.232 465.351 215.321 468.642Z" fill="#2B478B"/>
<path d="M407.718 450.806C396.84 456.084 332.219 457.552 326.005 455.682C322.819 454.721 309.481 442.442 296.063 427.336C296.725 427.427 302.861 416.737 330.84 442.32C330.84 442.32 338.167 445.728 358.108 443.821C378.05 441.913 403.589 444.172 407.718 450.806Z" fill="#233862"/>
<path d="M389.117 469.095H326.976C326.976 466.379 329.194 464.176 331.929 464.176H389.117V469.095Z" fill="#B24940"/>
<path d="M381.714 397.953H477.789L454.744 465.161H358.046L381.714 397.953Z" fill="#B24940"/>
<path d="M479.947 402.01L456.902 469.219H360.204L383.873 402.01H479.947Z" fill="#C65447"/>
<path d="M427.406 433.886C426.809 436.454 424.229 438.536 421.643 438.536C419.057 438.536 417.445 436.454 418.042 433.886C418.64 431.318 421.22 429.237 423.806 429.237C426.391 429.237 428.003 431.318 427.406 433.886Z" fill="#F99746"/>
<path d="M479.946 402.01L456.902 469.219H411.919L465.798 402.01H479.946Z" fill="#B24940"/>
<path d="M269.856 312.142L268.194 312.548C260.79 314.354 253.246 309.816 251.428 302.466L249.292 293.837C247.472 286.484 252.042 278.993 259.443 277.185L261.107 276.78C268.51 274.974 276.055 279.51 277.873 286.863L280.008 295.491C281.828 302.843 277.258 310.337 269.856 312.142Z" fill="#C65447"/>
<path d="M262.877 340.89L262.86 345.27C262.86 345.27 264.082 358.965 247.102 360.991C230.12 363.023 217.242 355.695 217.686 345.125C219.203 336.939 220.874 331.316 220.976 324.545C221.014 322.029 220.836 319.358 220.36 316.344L253.27 315.641L262.966 317.199L262.877 340.89Z" fill="#EA9E6A"/>
<path d="M262.966 316.461L262.877 340.153C259.384 341.772 255.441 342.763 251.019 342.77C235.892 342.793 220.837 318.621 220.361 315.606L262.966 316.461Z" fill="#D88D59"/>
<path d="M264.905 325.388C264.905 325.388 222.767 333.908 217.829 307.767C212.89 281.627 204.124 265.122 230.82 258.577C257.514 252.032 264.64 261.029 268.427 269.357C272.212 277.683 275.738 322.498 264.905 325.388Z" fill="#EA9E6A"/>
<path d="M268.923 270.661C268.923 270.661 263.826 253.397 242.277 276.461C242.277 276.461 234.009 307.147 222.794 291.52C222.794 291.52 205.738 296.061 226.18 312.32C226.18 312.32 221.313 344.048 200.708 277.022C200.708 277.022 196.003 248.825 253.925 246.892C253.925 246.892 275.178 244.637 268.923 270.661Z" fill="#2C3A64"/>
<path d="M238.917 317.521L237.326 318.146C230.237 320.929 222.142 317.446 219.34 310.406L216.051 302.143C213.249 295.102 216.756 287.065 223.845 284.282L225.438 283.658C232.527 280.875 240.62 284.358 243.422 291.397L246.711 299.662C249.513 306.701 246.007 314.739 238.917 317.521Z" fill="#C65447"/>
<path d="M220.499 288.927C219.036 287.14 214.536 271.469 216.664 257.977C217.693 251.457 223.26 251.363 227.276 250.215C228.93 249.742 227.978 250.139 229.765 249.822L233.658 248.992C220.41 257.565 222.897 282.693 224.632 285.934C224.579 285.835 224.52 285.765 224.478 285.714L220.499 288.927Z" fill="#C65447"/>
<path d="M260.593 318.377C236.502 322.658 221.171 305.872 221.019 305.702L222.936 304.011L221.978 304.856L222.935 304.01C216.221 296.534 244.36 318.675 260.142 315.871C260.293 315.844 260.444 315.816 260.597 315.788L261.075 318.289C260.915 318.319 260.752 318.349 260.593 318.377Z" fill="#C65447"/>
<path d="M233.519 309.816L232.727 310.128C229.194 311.514 225.163 309.779 223.766 306.272L222.127 302.154C220.73 298.646 222.478 294.642 226.01 293.255L226.804 292.944C230.336 291.557 234.368 293.293 235.765 296.8L237.404 300.918C238.8 304.425 237.052 308.429 233.519 309.816Z" fill="#F99746"/>
<path d="M263.736 318.679L261.464 319.082C260.308 319.289 259.192 318.515 258.985 317.367C258.778 316.218 259.555 315.11 260.711 314.904L262.983 314.501C264.139 314.294 265.256 315.067 265.463 316.216C265.67 317.364 264.892 318.474 263.736 318.679Z" fill="#2C3A64"/>
<path d="M216.102 333.876C216.102 333.876 204.772 365.428 245.882 366.66C245.882 366.66 245.657 360.022 240.321 358.546C234.985 357.071 218.402 339.309 221.019 324.942" fill="#233862"/>
<path d="M268.816 334.943C268.816 334.943 278.513 354.363 252.481 364.84C252.481 364.84 250.814 358.906 255.076 356.136C259.338 353.366 263.243 343.505 262.966 329.042" fill="#233862"/>
<path d="M245.882 366.66C245.882 366.66 268.482 401.555 272.197 471.23H275.726C275.726 471.23 269.225 400.168 245.882 366.66Z" fill="#233862"/>
<path d="M244.986 373.177C245.55 373.177 246.007 372.723 246.007 372.162C246.007 371.602 245.55 371.148 244.986 371.148C244.422 371.148 243.964 371.602 243.964 372.162C243.964 372.723 244.422 373.177 244.986 373.177Z" fill="#233862"/>
<path d="M249.908 384.521C250.472 384.521 250.929 384.067 250.929 383.506C250.929 382.946 250.472 382.492 249.908 382.492C249.344 382.492 248.886 382.946 248.886 383.506C248.886 384.067 249.344 384.521 249.908 384.521Z" fill="#233862"/>
<path d="M261.372 420.397C261.936 420.397 262.393 419.943 262.393 419.382C262.393 418.822 261.936 418.368 261.372 418.368C260.807 418.368 260.35 418.822 260.35 419.382C260.35 419.943 260.807 420.397 261.372 420.397Z" fill="#233862"/>
<path d="M263.988 432.847C264.552 432.847 265.009 432.393 265.009 431.833C265.009 431.273 264.552 430.818 263.988 430.818C263.424 430.818 262.966 431.273 262.966 431.833C262.966 432.393 263.424 432.847 263.988 432.847Z" fill="#233862"/>
<path d="M562.78 468.642C562.407 469.688 561.263 469.68 560.751 468.642H0.842041V477.496H756.521V468.642H562.78Z" fill="#2C3A64"/>
<path d="M479.947 401.641L477.789 397.953L474.9 398.919V402.485H478.367L479.947 401.641Z" fill="#B24940"/>
</svg>
